<svg xmlns="http://www.w3.org/2000/svg" width="1024" height="1024" fill="none" viewBox="0 0 1024 1024"><path fill="#000" d="M647.93 350.63c-2.97-29.9-15.68-53.12-38.15-69.67-22.47-16.55-52.96-24.82-91.48-24.82-26.18 0-48.27 3.7-66.3 11.11-18.02 7.17-31.85 17.17-41.48 30.02-9.38 12.84-14.08 27.42-14.08 43.72-.49 13.59 2.35 25.45 8.52 35.57 6.42 10.13 15.19 18.9 26.3 26.31 11.11 7.17 23.95 13.47 38.52 18.9a399.2 399.2 0 0 0 46.66 13.34l68.15 16.3c33.09 7.42 63.46 17.3 91.11 29.65 27.66 12.35 51.6 27.54 71.86 45.58a189.41 189.41 0 0 1 47.03 63.73c11.36 24.46 17.16 52.5 17.41 84.12-.25 46.44-12.1 86.7-35.56 120.8-23.2 33.84-56.79 60.14-100.74 78.92C632 892.74 579.28 902 517.56 902c-61.24 0-114.57-9.39-160-28.16-45.19-18.78-80.5-46.57-105.93-83.37-25.19-37.06-38.4-82.88-39.63-137.48h155.19c1.72 25.45 9 46.7 21.85 63.74 13.08 16.8 30.5 29.52 52.22 38.16 21.98 8.4 46.79 12.6 74.44 12.6 27.16 0 50.74-3.95 70.74-11.86 20.25-7.9 35.93-18.9 47.04-32.97 11.11-14.08 16.67-30.27 16.67-48.55 0-17.04-5.06-31.37-15.19-42.98-9.87-11.61-24.44-21.5-43.7-29.64-19.01-8.15-42.35-15.57-70-22.24l-82.6-20.75c-63.94-15.56-114.44-39.9-151.48-73-37.03-33.1-55.43-77.69-55.18-133.76-.25-45.95 11.97-86.1 36.67-120.43 24.94-34.34 59.13-61.14 102.59-80.4C414.72 131.62 464.1 122 519.4 122c56.3 0 105.43 9.63 147.4 28.9 42.23 19.27 75.07 46.07 98.52 80.41 23.46 34.34 35.56 74.11 36.3 119.32h-153.7Z"/></svg>